<?xml version="1.0" standalone="no"?>
 <!DOCTYPE svg PUBLIC "-//W3C//DTD SVG 1.1//EN" 
 "http://www.w3.org/Graphics/SVG/1.1/DTD/svg11.dtd"> 
<svg xmlns="http://www.w3.org/2000/svg" version="1.1" 
    width="8.64108cm" height="3.3528cm" viewBox="0 0 34020 13200 ">
<title>SVG Picture created as esp-com-B_Cu.svg date 2015/11/24 15:43:53 </title>
  <desc>Picture generated by PCBNEW </desc>
<g style="fill:#000000; fill-opacity:1;stroke:#000000; stroke-opacity:1;
stroke-linecap:round; stroke-linejoin:round; "
 transform="translate(0 0) scale(1 1)">
</g>
<g style="fill:#000000; fill-opacity:0.0; 
stroke:#000000; stroke-width:39.3701; stroke-opacity:1; 
stroke-linecap:round; stroke-linejoin:round;">
</g>
<g style="fill:#000000; fill-opacity:1.0; 
stroke:#000000; stroke-width:39.3701; stroke-opacity:1; 
stroke-linecap:round; stroke-linejoin:round;">
<polyline style="fill-rule:evenodd;"
points="20443,8140
19883,8140
19883,7579
20443,7579
20443,8140
" /> 
<circle cx="21163.4" cy="7860" r="374.016" /> 
<circle cx="20163.4" cy="6860" r="374.016" /> 
<circle cx="21163.4" cy="6860" r="177.165" /> 
<circle cx="20163.4" cy="5860" r="374.016" /> 
<circle cx="21163.4" cy="5860" r="177.165" /> 
<circle cx="20163.4" cy="4860" r="374.016" /> 
<circle cx="21163.4" cy="4860" r="374.016" /> 
<circle cx="20163.4" cy="3860" r="374.016" /> 
<circle cx="21163.4" cy="3860" r="374.016" /> 
<polyline style="fill-rule:evenodd;"
points="5418,2273
5418,1446
6008,1446
6008,2273
5418,2273
" /> 
<circle cx="6713.39" cy="1860" r="413.386" /> 
<polyline style="fill-rule:evenodd;"
points="9900,9779
10726,9779
10726,10340
9900,10340
9900,9779
" /> 
<circle cx="10313.4" cy="11060" r="413.386" /> 
<polyline style="fill-rule:evenodd;"
points="3389,9729
4137,9729
4137,10290
3389,10290
3389,9729
" /> 
<circle cx="3763.39" cy="11010" r="413.386" /> 
<circle cx="24863.4" cy="11560" r="1161.42" /> 
<circle cx="24863.4" cy="1560" r="1161.42" /> 
<polyline style="fill-rule:evenodd;"
points="23583,8429
24143,8429
24143,8990
23583,8990
23583,8429
" /> 
<circle cx="23863.4" cy="7610" r="374.016" /> 
<circle cx="23863.4" cy="6510" r="374.016" /> 
<circle cx="23863.4" cy="5460" r="374.016" /> 
<circle cx="23863.4" cy="4360" r="374.016" /> 
<circle cx="24863.4" cy="4910" r="374.016" /> 
<circle cx="24863.4" cy="6010" r="374.016" /> 
<circle cx="24863.4" cy="7060" r="374.016" /> 
<circle cx="24863.4" cy="8160" r="374.016" /> 
<circle cx="8213.39" cy="7710" r="472.315" /> 
<circle cx="10588.4" cy="8485" r="472.315" /> 
<circle cx="12938.4" cy="7710" r="472.315" /> 
<circle cx="8213.39" cy="2885" r="472.315" /> 
<circle cx="12938.4" cy="2885" r="472.315" /> 
<circle cx="12263.4" cy="12010" r="413.386" /> 
<circle cx="13263.4" cy="12010" r="413.386" /> 
<circle cx="14263.4" cy="12010" r="413.386" /> 
<circle cx="15263.4" cy="12010" r="413.386" /> 
<circle cx="16263.4" cy="12010" r="413.386" /> 
<circle cx="17263.4" cy="12010" r="413.386" /> 
<circle cx="8163.39" cy="11260" r="137.795" /> 
<circle cx="8213.39" cy="10310" r="137.795" /> 
<circle cx="13263.4" cy="5460" r="137.795" /> 
<circle cx="13913.4" cy="10960" r="137.795" /> 
<circle cx="8963.39" cy="9810" r="137.795" /> 
<circle cx="4863.39" cy="2060" r="137.795" /> 
<circle cx="13263.4" cy="4710" r="137.795" /> 
<circle cx="15563.4" cy="10960" r="137.795" /> 
<circle cx="1113.39" cy="11210" r="137.795" /> 
<circle cx="6213.39" cy="9560" r="137.795" /> 
</g>
<g style="fill:#000000; fill-opacity:1.0; 
stroke:#000000; stroke-width:157.48; stroke-opacity:1; 
stroke-linecap:round; stroke-linejoin:round;">
<path d="M8163 10360
L8163 11260
" />
<path d="M8213 10310
L8163 10360
" />
<path d="M13763 5960
L13263 5460
" />
<path d="M13763 10810
L13763 5960
" />
<path d="M13913 10960
L13763 10810
" />
<path d="M7613 9810
L8963 9810
" />
<path d="M4913 7110
L7613 9810
" />
<path d="M4913 2110
L4913 7110
" />
<path d="M4863 2060
L4913 2110
" />
<path d="M14363 5810
L13263 4710
" />
<path d="M14363 9760
L14363 5810
" />
<path d="M15563 10960
L14363 9760
" />
<path d="M1813 11910
L1113 11210
" />
<path d="M3863 11910
L1813 11910
" />
<path d="M6213 9560
L3863 11910
" />
</g>
<g style="fill:#FFFFFF; fill-opacity:1.0; 
stroke:#FFFFFF; stroke-width:39.3701; stroke-opacity:1; 
stroke-linecap:round; stroke-linejoin:round;">
<circle cx="8163.39" cy="11260" r="49.2126" /> 
<circle cx="8213.39" cy="10310" r="49.2126" /> 
<circle cx="13263.4" cy="5460" r="49.2126" /> 
<circle cx="13913.4" cy="10960" r="49.2126" /> 
<circle cx="8963.39" cy="9810" r="49.2126" /> 
<circle cx="4863.39" cy="2060" r="49.2126" /> 
<circle cx="13263.4" cy="4710" r="49.2126" /> 
<circle cx="15563.4" cy="10960" r="49.2126" /> 
<circle cx="1113.39" cy="11210" r="49.2126" /> 
<circle cx="6213.39" cy="9560" r="49.2126" /> 
<circle cx="20163.4" cy="7860" r="49.2126" /> 
<circle cx="21163.4" cy="7860" r="49.2126" /> 
<circle cx="20163.4" cy="6860" r="49.2126" /> 
<circle cx="21163.4" cy="6860" r="49.2126" /> 
<circle cx="20163.4" cy="5860" r="49.2126" /> 
<circle cx="21163.4" cy="5860" r="49.2126" /> 
<circle cx="20163.4" cy="4860" r="49.2126" /> 
<circle cx="21163.4" cy="4860" r="49.2126" /> 
<circle cx="20163.4" cy="3860" r="49.2126" /> 
<circle cx="21163.4" cy="3860" r="49.2126" /> 
<circle cx="5713.39" cy="1860" r="49.2126" /> 
<circle cx="6713.39" cy="1860" r="49.2126" /> 
<circle cx="10313.4" cy="10060" r="49.2126" /> 
<circle cx="10313.4" cy="11060" r="49.2126" /> 
<circle cx="3763.39" cy="10010" r="49.2126" /> 
<circle cx="3763.39" cy="11010" r="49.2126" /> 
<circle cx="24863.4" cy="11560" r="49.2126" /> 
<circle cx="24863.4" cy="1560" r="49.2126" /> 
<circle cx="23863.4" cy="8710" r="49.2126" /> 
<circle cx="23863.4" cy="7610" r="49.2126" /> 
<circle cx="23863.4" cy="6510" r="49.2126" /> 
<circle cx="23863.4" cy="5460" r="49.2126" /> 
<circle cx="23863.4" cy="4360" r="49.2126" /> 
<circle cx="24863.4" cy="4910" r="49.2126" /> 
<circle cx="24863.4" cy="6010" r="49.2126" /> 
<circle cx="24863.4" cy="7060" r="49.2126" /> 
<circle cx="24863.4" cy="8160" r="49.2126" /> 
<circle cx="8213.39" cy="7710" r="59.0551" /> 
<circle cx="10588.4" cy="8485" r="59.0551" /> 
<circle cx="12938.4" cy="7710" r="59.0551" /> 
<circle cx="8213.39" cy="2885" r="59.0551" /> 
<circle cx="12938.4" cy="2885" r="59.0551" /> 
<circle cx="12263.4" cy="12010" r="59.0551" /> 
<circle cx="13263.4" cy="12010" r="59.0551" /> 
<circle cx="14263.4" cy="12010" r="59.0551" /> 
<circle cx="15263.4" cy="12010" r="59.0551" /> 
<circle cx="16263.4" cy="12010" r="59.0551" /> 
<circle cx="17263.4" cy="12010" r="59.0551" /> 
</g> 
</svg>
