<?xml version="1.0" standalone="no"?>
 <!DOCTYPE svg PUBLIC "-//W3C//DTD SVG 1.1//EN" 
 "http://www.w3.org/Graphics/SVG/1.1/DTD/svg11.dtd"> 
<svg xmlns="http://www.w3.org/2000/svg" version="1.1" 
    width="8.64108cm" height="3.3528cm" viewBox="0 0 34020 13200 ">
<title>SVG Picture created as esp-com-F_Cu.svg date 2015/11/24 15:43:53 </title>
  <desc>Picture generated by PCBNEW </desc>
<g style="fill:#000000; fill-opacity:1;stroke:#000000; stroke-opacity:1;
stroke-linecap:round; stroke-linejoin:round; "
 transform="translate(0 0) scale(1 1)">
</g>
<g style="fill:#000000; fill-opacity:0.0; 
stroke:#000000; stroke-width:118.11; stroke-opacity:1; 
stroke-linecap:round; stroke-linejoin:round;">
<path d="M15377 1449
L15377 858
" />
<path d="M15377 1420
L15321 1449
L15209 1449
L15152 1420
L15124 1392
L15096 1336
L15096 1167
L15124 1111
L15152 1083
L15209 1055
L15321 1055
L15377 1083
" />
<path d="M15659 1392
L15687 1420
L15659 1449
L15630 1420
L15659 1392
L15659 1449
" />
<path d="M16193 1420
L16137 1449
L16024 1449
L15968 1420
L15940 1392
L15912 1336
L15912 1167
L15940 1111
L15968 1083
L16024 1055
L16137 1055
L16193 1083
" />
<path d="M16446 1449
L16446 858
" />
<path d="M16699 1449
L16699 1139
L16671 1083
L16615 1055
L16530 1055
L16474 1083
L16446 1111
" />
<path d="M17233 1055
L17233 1449
" />
<path d="M16980 1055
L16980 1364
L17008 1420
L17065 1449
L17149 1449
L17205 1420
L17233 1392
" />
<path d="M17430 1055
L17655 1055
" />
<path d="M17515 1449
L17515 942
L17543 886
L17599 858
L17655 858
" />
<path d="M17796 1055
L17936 1449
" />
<path d="M18077 1055
L17936 1449
L17880 1589
L17852 1617
L17796 1645
" />
<path d="M18302 1449
L18302 1055
" />
<path d="M18302 1167
L18330 1111
L18358 1083
L18414 1055
L18471 1055
" />
<path d="M18668 1449
L18668 1055
" />
<path d="M18668 858
L18639 886
L18668 914
L18696 886
L18668 858
L18668 914
" />
<path d="M18949 1055
L18949 1449
" />
<path d="M18949 1111
L18977 1083
L19033 1055
L19117 1055
L19174 1083
L19202 1139
L19202 1449
" />
<path d="M19905 914
L19933 886
L19989 858
L20130 858
L20186 886
L20214 914
L20242 970
L20242 1027
L20214 1111
L19877 1449
L20242 1449
" />
<path d="M20608 858
L20664 858
L20720 886
L20749 914
L20777 970
L20805 1083
L20805 1224
L20777 1336
L20749 1392
L20720 1420
L20664 1449
L20608 1449
L20552 1420
L20524 1392
L20495 1336
L20467 1224
L20467 1083
L20495 970
L20524 914
L20552 886
L20608 858
" />
<path d="M21367 1449
L21030 1449
" />
<path d="M21198 1449
L21198 858
L21142 942
L21086 999
L21030 1027
" />
<path d="M21902 858
L21620 858
L21592 1139
L21620 1111
L21677 1083
L21817 1083
L21873 1111
L21902 1139
L21930 1195
L21930 1336
L21902 1392
L21873 1420
L21817 1449
L21677 1449
L21620 1420
L21592 1392
" />
</g>
<g style="fill:#000000; fill-opacity:0.0; 
stroke:#000000; stroke-width:39.3701; stroke-opacity:1; 
stroke-linecap:round; stroke-linejoin:round;">
</g>
<g style="fill:#000000; fill-opacity:1.0; 
stroke:#000000; stroke-width:39.3701; stroke-opacity:1; 
stroke-linecap:round; stroke-linejoin:round;">
<polyline style="fill-rule:evenodd;"
points="11373,7720
11053,7720
11053,7399
11373,7399
11373,7720
" /> 
<polyline style="fill-rule:evenodd;"
points="11373,7020
11053,7020
11053,6699
11373,6699
11373,7020
" /> 
<polyline style="fill-rule:evenodd;"
points="12173,7370
11853,7370
11853,7049
12173,7049
12173,7370
" /> 
<polyline style="fill-rule:evenodd;"
points="18783,8859
19543,8859
19543,10260
18783,10260
18783,8859
" /> 
<polyline style="fill-rule:evenodd;"
points="16183,9379
16943,9379
16943,9740
16183,9740
16183,9379
" /> 
<polyline style="fill-rule:evenodd;"
points="16183,10279
16943,10279
16943,10640
16183,10640
16183,10279
" /> 
<polyline style="fill-rule:evenodd;"
points="16183,8479
16943,8479
16943,8840
16183,8840
16183,8479
" /> 
<polyline style="fill-rule:evenodd;"
points="16468,7390
16058,7390
16058,7229
16468,7229
16468,7390
" /> 
<polyline style="fill-rule:evenodd;"
points="16468,6890
16058,6890
16058,6729
16468,6729
16468,6890
" /> 
<polyline style="fill-rule:evenodd;"
points="16468,6390
16058,6390
16058,6229
16468,6229
16468,6390
" /> 
<polyline style="fill-rule:evenodd;"
points="16468,5890
16058,5890
16058,5729
16468,5729
16468,5890
" /> 
<polyline style="fill-rule:evenodd;"
points="16468,5390
16058,5390
16058,5229
16468,5229
16468,5390
" /> 
<polyline style="fill-rule:evenodd;"
points="16468,4890
16058,4890
16058,4729
16468,4729
16468,4890
" /> 
<polyline style="fill-rule:evenodd;"
points="16468,4390
16058,4390
16058,4229
16468,4229
16468,4390
" /> 
<polyline style="fill-rule:evenodd;"
points="16468,3890
16058,3890
16058,3729
16468,3729
16468,3890
" /> 
<polyline style="fill-rule:evenodd;"
points="14468,3890
14058,3890
14058,3729
14468,3729
14468,3890
" /> 
<polyline style="fill-rule:evenodd;"
points="14468,4390
14058,4390
14058,4229
14468,4229
14468,4390
" /> 
<polyline style="fill-rule:evenodd;"
points="14468,4890
14058,4890
14058,4729
14468,4729
14468,4890
" /> 
<polyline style="fill-rule:evenodd;"
points="14468,5390
14058,5390
14058,5229
14468,5229
14468,5390
" /> 
<polyline style="fill-rule:evenodd;"
points="14468,5890
14058,5890
14058,5729
14468,5729
14468,5890
" /> 
<polyline style="fill-rule:evenodd;"
points="14468,6390
14058,6390
14058,6229
14468,6229
14468,6390
" /> 
<polyline style="fill-rule:evenodd;"
points="14468,6890
14058,6890
14058,6729
14468,6729
14468,6890
" /> 
<polyline style="fill-rule:evenodd;"
points="14468,7390
14058,7390
14058,7229
14468,7229
14468,7390
" /> 
<polyline style="fill-rule:evenodd;"
points="7683,6965
7683,6454
7993,6454
7993,6965
7683,6965
" /> 
<polyline style="fill-rule:evenodd;"
points="8433,6965
8433,6454
8743,6454
8743,6965
8433,6965
" /> 
<polyline style="fill-rule:evenodd;"
points="12768,4790
12258,4790
12258,4479
12768,4479
12768,4790
" /> 
<polyline style="fill-rule:evenodd;"
points="12768,4040
12258,4040
12258,3729
12768,3729
12768,4040
" /> 
<polyline style="fill-rule:evenodd;"
points="12768,6340
12258,6340
12258,6029
12768,6029
12768,6340
" /> 
<polyline style="fill-rule:evenodd;"
points="12768,5590
12258,5590
12258,5279
12768,5279
12768,5590
" /> 
<polyline style="fill-rule:evenodd;"
points="6268,10990
5758,10990
5758,10679
6268,10679
6268,10990
" /> 
<polyline style="fill-rule:evenodd;"
points="6268,10240
5758,10240
5758,9929
6268,9929
6268,10240
" /> 
<polyline style="fill-rule:evenodd;"
points="1368,10790
858,10790
858,10479
1368,10479
1368,10790
" /> 
<polyline style="fill-rule:evenodd;"
points="1368,10040
858,10040
858,9729
1368,9729
1368,10040
" /> 
<polyline style="fill-rule:evenodd;"
points="20443,8140
19883,8140
19883,7579
20443,7579
20443,8140
" /> 
<circle cx="21163.4" cy="7860" r="374.016" /> 
<circle cx="20163.4" cy="6860" r="374.016" /> 
<circle cx="21163.4" cy="6860" r="177.165" /> 
<circle cx="20163.4" cy="5860" r="374.016" /> 
<circle cx="21163.4" cy="5860" r="177.165" /> 
<circle cx="20163.4" cy="4860" r="374.016" /> 
<circle cx="21163.4" cy="4860" r="374.016" /> 
<circle cx="20163.4" cy="3860" r="374.016" /> 
<circle cx="21163.4" cy="3860" r="374.016" /> 
<polyline style="fill-rule:evenodd;"
points="5418,2273
5418,1446
6008,1446
6008,2273
5418,2273
" /> 
<circle cx="6713.39" cy="1860" r="413.386" /> 
<polyline style="fill-rule:evenodd;"
points="9900,9779
10726,9779
10726,10340
9900,10340
9900,9779
" /> 
<circle cx="10313.4" cy="11060" r="413.386" /> 
<polyline style="fill-rule:evenodd;"
points="3389,9729
4137,9729
4137,10290
3389,10290
3389,9729
" /> 
<circle cx="3763.39" cy="11010" r="413.386" /> 
<polyline style="fill-rule:evenodd;"
points="5129,11189
4697,11189
4697,10756
5129,10756
5129,11189
" /> 
<polyline style="fill-rule:evenodd;"
points="5129,10363
4697,10363
4697,9930
5129,9930
5129,10363
" /> 
<polyline style="fill-rule:evenodd;"
points="11668,9776
12258,9776
12258,10761
11668,10761
11668,9776
" /> 
<polyline style="fill-rule:evenodd;"
points="11668,8358
12258,8358
12258,9343
11668,9343
11668,8358
" /> 
<polyline style="fill-rule:evenodd;"
points="20568,10526
21158,10526
21158,11511
20568,11511
20568,10526
" /> 
<polyline style="fill-rule:evenodd;"
points="20568,9108
21158,9108
21158,10093
20568,10093
20568,9108
" /> 
<polyline style="fill-rule:evenodd;"
points="14724,2584
14724,3135
14252,3135
14252,2584
14724,2584
" /> 
<polyline style="fill-rule:evenodd;"
points="15474,2584
15474,3135
15002,3135
15002,2584
15474,2584
" /> 
<polyline style="fill-rule:evenodd;"
points="17188,6998
17738,6998
17738,7471
17188,7471
17188,6998
" /> 
<polyline style="fill-rule:evenodd;"
points="17188,6248
17738,6248
17738,6721
17188,6721
17188,6248
" /> 
<polyline style="fill-rule:evenodd;"
points="17188,5498
17738,5498
17738,5971
17188,5971
17188,5498
" /> 
<polyline style="fill-rule:evenodd;"
points="17188,4748
17738,4748
17738,5221
17188,5221
17188,4748
" /> 
<polyline style="fill-rule:evenodd;"
points="2174,9684
2174,10235
1702,10235
1702,9684
2174,9684
" /> 
<polyline style="fill-rule:evenodd;"
points="2924,9684
2924,10235
2452,10235
2452,9684
2924,9684
" /> 
<polyline style="fill-rule:evenodd;"
points="13488,9198
14038,9198
14038,9671
13488,9671
13488,9198
" /> 
<polyline style="fill-rule:evenodd;"
points="13488,8448
14038,8448
14038,8921
13488,8921
13488,8448
" /> 
<polyline style="fill-rule:evenodd;"
points="15124,7984
15124,8535
14652,8535
14652,7984
15124,7984
" /> 
<polyline style="fill-rule:evenodd;"
points="15874,7984
15874,8535
15402,8535
15402,7984
15874,7984
" /> 
<circle cx="24863.4" cy="11560" r="1161.42" /> 
<circle cx="24863.4" cy="1560" r="1161.42" /> 
<polyline style="fill-rule:evenodd;"
points="23583,8429
24143,8429
24143,8990
23583,8990
23583,8429
" /> 
<circle cx="23863.4" cy="7610" r="374.016" /> 
<circle cx="23863.4" cy="6510" r="374.016" /> 
<circle cx="23863.4" cy="5460" r="374.016" /> 
<circle cx="23863.4" cy="4360" r="374.016" /> 
<circle cx="24863.4" cy="4910" r="374.016" /> 
<circle cx="24863.4" cy="6010" r="374.016" /> 
<circle cx="24863.4" cy="7060" r="374.016" /> 
<circle cx="24863.4" cy="8160" r="374.016" /> 
<polyline style="fill-rule:evenodd;"
points="2078,9139
1724,9139
1724,7998
2078,7998
2078,9139
" /> 
<polyline style="fill-rule:evenodd;"
points="2865,9139
2511,9139
2511,7998
2865,7998
2865,9139
" /> 
<polyline style="fill-rule:evenodd;"
points="3653,9139
3298,9139
3298,7998
3653,7998
3653,9139
" /> 
<polyline style="fill-rule:evenodd;"
points="4440,9139
4086,9139
4086,7998
4440,7998
4440,9139
" /> 
<polyline style="fill-rule:evenodd;"
points="5227,9139
4873,9139
4873,7998
5227,7998
5227,9139
" /> 
<polyline style="fill-rule:evenodd;"
points="6015,9139
5661,9139
5661,7998
6015,7998
6015,9139
" /> 
<polyline style="fill-rule:evenodd;"
points="6802,9139
6448,9139
6448,7998
6802,7998
6802,9139
" /> 
<polyline style="fill-rule:evenodd;"
points="6802,4021
6448,4021
6448,2880
6802,2880
6802,4021
" /> 
<polyline style="fill-rule:evenodd;"
points="6015,4021
5661,4021
5661,2880
6015,2880
6015,4021
" /> 
<polyline style="fill-rule:evenodd;"
points="5227,4021
4873,4021
4873,2880
5227,2880
5227,4021
" /> 
<polyline style="fill-rule:evenodd;"
points="4440,4021
4086,4021
4086,2880
4440,2880
4440,4021
" /> 
<polyline style="fill-rule:evenodd;"
points="3653,4021
3298,4021
3298,2880
3653,2880
3653,4021
" /> 
<polyline style="fill-rule:evenodd;"
points="2865,4021
2511,4021
2511,2880
2865,2880
2865,4021
" /> 
<polyline style="fill-rule:evenodd;"
points="2078,4021
1724,4021
1724,2880
2078,2880
2078,4021
" /> 
<polyline style="fill-rule:evenodd;"
points="11568,4939
11568,6080
10820,6080
10820,4939
11568,4939
" /> 
<polyline style="fill-rule:evenodd;"
points="9206,4939
9206,6080
8458,6080
8458,4939
9206,4939
" /> 
<polyline style="fill-rule:evenodd;"
points="1095,2173
1095,1346
1469,1346
1469,2173
1095,2173
" /> 
<polyline style="fill-rule:evenodd;"
points="2257,2173
2257,1346
2631,1346
2631,2173
2257,2173
" /> 
<polyline style="fill-rule:evenodd;"
points="1686,2547
1686,2173
2040,2173
2040,2547
1686,2547
" /> 
<circle cx="8213.39" cy="7710" r="472.315" /> 
<circle cx="10588.4" cy="8485" r="472.315" /> 
<circle cx="12938.4" cy="7710" r="472.315" /> 
<circle cx="8213.39" cy="2885" r="472.315" /> 
<circle cx="12938.4" cy="2885" r="472.315" /> 
<circle cx="12263.4" cy="12010" r="413.386" /> 
<circle cx="13263.4" cy="12010" r="413.386" /> 
<circle cx="14263.4" cy="12010" r="413.386" /> 
<circle cx="15263.4" cy="12010" r="413.386" /> 
<circle cx="16263.4" cy="12010" r="413.386" /> 
<circle cx="17263.4" cy="12010" r="413.386" /> 
<circle cx="8163.39" cy="11260" r="137.795" /> 
<circle cx="8213.39" cy="10310" r="137.795" /> 
<circle cx="13263.4" cy="5460" r="137.795" /> 
<circle cx="13913.4" cy="10960" r="137.795" /> 
<circle cx="8963.39" cy="9810" r="137.795" /> 
<circle cx="4863.39" cy="2060" r="137.795" /> 
<circle cx="13263.4" cy="4710" r="137.795" /> 
<circle cx="15563.4" cy="10960" r="137.795" /> 
<circle cx="1113.39" cy="11210" r="137.795" /> 
<circle cx="6213.39" cy="9560" r="137.795" /> 
</g>
<g style="fill:#000000; fill-opacity:1.0; 
stroke:#000000; stroke-width:157.48; stroke-opacity:1; 
stroke-linecap:round; stroke-linejoin:round;">
<path d="M8213 7710
L8213 10310
" />
<path d="M10013 11360
L10313 11060
" />
<path d="M8263 11360
L10013 11360
" />
<path d="M8163 11260
L8263 11360
" />
<path d="M10313 11060
L11172 11060
" />
<path d="M11172 11060
L11963 10269
" />
<path d="M8832 5510
L8832 5541
" />
<path d="M8213 6160
L8213 7710
" />
<path d="M8832 5541
L8213 6160
" />
<path d="M13763 9435
L13538 9435
" />
<path d="M12704 10269
L11963 10269
" />
<path d="M13538 9435
L12704 10269
" />
<path d="M16563 10460
L16463 10460
" />
<path d="M14888 8885
L14888 8260
" />
<path d="M16463 10460
L14888 8885
" />
<path d="M16563 10460
L14563 10460
" />
<path d="M13763 9660
L13763 9435
" />
<path d="M14563 10460
L13763 9660
" />
<path d="M14263 7310
L14263 7635
" />
<path d="M14263 7635
L14888 8260
" />
<path d="M5050 7622
L5050 8569
" />
<path d="M7263 10410
L7263 7810
" />
<path d="M7263 7810
L6963 7510
" />
<path d="M6963 7510
L5163 7510
" />
<path d="M5163 7510
L5050 7622
" />
<path d="M12263 12010
L7663 12010
" />
<path d="M7263 11610
L7263 10410
" />
<path d="M7663 12010
L7263 11610
" />
<path d="M14638 2035
L14688 1985
" />
<path d="M14713 1960
L14638 2035
" />
<path d="M19363 1960
L14713 1960
" />
<path d="M20163 5860
L20113 5860
" />
<path d="M23863 3660
L22163 1960
" />
<path d="M22163 1960
L19363 1960
" />
<path d="M23863 4360
L23863 3660
" />
<path d="M20113 5860
L19363 5110
" />
<path d="M19363 5110
L19363 1960
" />
<path d="M2444 1760
L4263 1760
" />
<path d="M13913 1210
L14688 1985
" />
<path d="M4813 1210
L13913 1210
" />
<path d="M4263 1760
L4813 1210
" />
<path d="M6625 3450
L6625 2722
" />
<path d="M3363 1760
L2444 1760
" />
<path d="M4163 2560
L3363 1760
" />
<path d="M6463 2560
L4163 2560
" />
<path d="M6625 2722
L6463 2560
" />
<path d="M11963 8851
L13597 8851
" />
<path d="M13597 8851
L13763 8685
" />
<path d="M23863 4360
L24163 4360
" />
<path d="M24163 4360
L24313 4210
" />
<path d="M24313 4210
L25263 4210
" />
<path d="M25263 4210
L25613 4560
" />
<path d="M25613 4560
L25613 8610
" />
<path d="M25613 8610
L24622 9601
" />
<path d="M24622 9601
L20863 9601
" />
<path d="M14488 2185
L14488 2860
" />
<path d="M14688 1985
L14488 2185
" />
<path d="M10313 10060
L10163 10060
" />
<path d="M7663 10810
L7263 10410
" />
<path d="M9413 10810
L7663 10810
" />
<path d="M10163 10060
L9413 10810
" />
<path d="M2444 1760
L2444 1240
" />
<path d="M1282 1190
L1282 1760
" />
<path d="M1363 1110
L1282 1190
" />
<path d="M2313 1110
L1363 1110
" />
<path d="M2444 1240
L2313 1110
" />
<path d="M10313 10060
L10754 10060
" />
<path d="M10754 10060
L11963 8851
" />
<path d="M20863 9601
L20863 9660
" />
<path d="M20863 9660
L19963 10560
" />
<path d="M19963 10560
L18513 10560
" />
<path d="M18513 10560
L18263 10310
" />
<path d="M18263 10310
L18263 8860
" />
<path d="M18263 8860
L18063 8660
" />
<path d="M18063 8660
L16563 8660
" />
<path d="M12513 6185
L13338 6185
" />
<path d="M13338 6185
L13963 6810
" />
<path d="M14263 6810
L13963 6810
" />
<path d="M13763 7010
L13763 8685
" />
<path d="M13963 6810
L13763 7010
" />
<path d="M2688 9960
L3713 9960
" />
<path d="M3713 9960
L3763 10010
" />
<path d="M4913 10147
L3900 10147
" />
<path d="M3900 10147
L3763 10010
" />
<path d="M5050 8569
L5050 10009
" />
<path d="M5050 10009
L4913 10147
" />
<path d="M11213 7560
L11463 7560
" />
<path d="M11963 8060
L11963 8851
" />
<path d="M11463 7560
L11963 8060
" />
<path d="M14263 6810
L14813 6810
" />
<path d="M14813 6810
L14863 6760
" />
<path d="M14863 6760
L14863 3560
" />
<path d="M14863 3560
L14563 3260
" />
<path d="M14563 3260
L14563 2935
" />
<path d="M14563 2935
L14488 2860
" />
<path d="M3763 11010
L3913 11010
" />
<path d="M6625 11397
L6625 8569
" />
<path d="M6513 11510
L6625 11397
" />
<path d="M4413 11510
L6513 11510
" />
<path d="M3913 11010
L4413 11510
" />
<path d="M21163 7860
L23613 7860
" />
<path d="M23613 7860
L23863 7610
" />
<path d="M16263 4310
L18113 4310
" />
<path d="M21163 8360
L21163 7860
" />
<path d="M20863 8660
L21163 8360
" />
<path d="M19763 8660
L20863 8660
" />
<path d="M18563 7460
L19763 8660
" />
<path d="M18563 4760
L18563 7460
" />
<path d="M18113 4310
L18563 4760
" />
<path d="M12513 3885
L14188 3885
" />
<path d="M14188 3885
L14263 3810
" />
<path d="M15263 12010
L15263 11410
" />
<path d="M13238 5435
L12513 5435
" />
<path d="M13263 5460
L13238 5435
" />
<path d="M14813 10960
L13913 10960
" />
<path d="M15263 11410
L14813 10960
" />
<path d="M12513 4635
L12513 5435
" />
<path d="M12513 4635
L4338 4635
" />
<path d="M4263 4560
L4263 3450
" />
<path d="M4338 4635
L4263 4560
" />
<path d="M1863 2360
L1863 3413
" />
<path d="M1863 3413
L1901 3450
" />
<path d="M7838 6710
L3063 6710
" />
<path d="M2688 7084
L2688 8569
" />
<path d="M3063 6710
L2688 7084
" />
<path d="M4913 10973
L5875 10973
" />
<path d="M5875 10973
L6013 10835
" />
<path d="M8588 6710
L11063 6710
" />
<path d="M11063 6710
L11213 6860
" />
<path d="M6713 1860
L7188 1860
" />
<path d="M7188 1860
L8213 2885
" />
<path d="M5713 1860
L5063 1860
" />
<path d="M10288 8485
L10588 8485
" />
<path d="M8963 9810
L10288 8485
" />
<path d="M5063 1860
L4863 2060
" />
<path d="M16263 12010
L16263 11660
" />
<path d="M13213 4660
L13213 4310
" />
<path d="M13263 4710
L13213 4660
" />
<path d="M16263 11660
L15563 10960
" />
<path d="M14263 4310
L13213 4310
" />
<path d="M5050 4122
L5050 3450
" />
<path d="M4913 4260
L5050 4122
" />
<path d="M7113 4260
L4913 4260
" />
<path d="M13163 4260
L7113 4260
" />
<path d="M13213 4310
L13163 4260
" />
<path d="M20163 6860
L20363 6860
" />
<path d="M23713 6360
L23863 6510
" />
<path d="M20863 6360
L23713 6360
" />
<path d="M20363 6860
L20863 6360
" />
<path d="M20163 6860
L19963 6860
" />
<path d="M16413 3660
L16263 3810
" />
<path d="M18263 3660
L16413 3660
" />
<path d="M18963 4360
L18263 3660
" />
<path d="M18963 5860
L18963 4360
" />
<path d="M19963 6860
L18963 5860
" />
<path d="M6013 10085
L6013 9760
" />
<path d="M1113 11210
L1113 10635
" />
<path d="M6013 9760
L6213 9560
" />
<path d="M6013 10085
L6013 9910
" />
<path d="M5838 9734
L5838 8569
" />
<path d="M6013 9910
L5838 9734
" />
<path d="M11194 5510
L11194 5791
" />
<path d="M12013 6610
L12013 7210
" />
<path d="M11194 5791
L12013 6610
" />
<path d="M12938 7710
L12513 7710
" />
<path d="M12513 7710
L12013 7210
" />
<path d="M15638 8260
L15638 6985
" />
<path d="M15813 6810
L16263 6810
" />
<path d="M15638 6985
L15813 6810
" />
<path d="M14563 12660
L7313 12660
" />
<path d="M1938 10835
L1938 9960
" />
<path d="M2963 11860
L1938 10835
" />
<path d="M6513 11860
L2963 11860
" />
<path d="M7313 12660
L6513 11860
" />
<path d="M14263 12010
L14263 12360
" />
<path d="M19222 12660
L20863 11019
" />
<path d="M14563 12660
L19222 12660
" />
<path d="M14263 12360
L14563 12660
" />
<path d="M1901 8569
L1901 6072
" />
<path d="M2688 5284
L2688 3450
" />
<path d="M1901 6072
L2688 5284
" />
<path d="M1113 9885
L1863 9885
" />
<path d="M1863 9885
L1938 9960
" />
<path d="M20863 11019
L18322 11019
" />
<path d="M18322 11019
L17913 10610
" />
<path d="M17913 10610
L17913 9760
" />
<path d="M17913 9760
L17713 9560
" />
<path d="M17713 9560
L16563 9560
" />
<path d="M1901 8569
L1901 9922
" />
<path d="M1901 9922
L1938 9960
" />
<path d="M16263 4810
L15813 4810
" />
<path d="M15238 4235
L15238 2860
" />
<path d="M15813 4810
L15238 4235
" />
<path d="M16263 6310
L17288 6310
" />
<path d="M17288 6310
L17463 6485
" />
<path d="M16263 7310
L17388 7310
" />
<path d="M17388 7310
L17463 7235
" />
<path d="M16263 5810
L17388 5810
" />
<path d="M17388 5810
L17463 5735
" />
<path d="M16263 5310
L16813 5310
" />
<path d="M17138 4985
L17463 4985
" />
<path d="M16813 5310
L17138 4985
" />
</g>
<g style="fill:#FFFFFF; fill-opacity:1.0; 
stroke:#FFFFFF; stroke-width:39.3701; stroke-opacity:1; 
stroke-linecap:round; stroke-linejoin:round;">
<circle cx="8163.39" cy="11260" r="49.2126" /> 
<circle cx="8213.39" cy="10310" r="49.2126" /> 
<circle cx="13263.4" cy="5460" r="49.2126" /> 
<circle cx="13913.4" cy="10960" r="49.2126" /> 
<circle cx="8963.39" cy="9810" r="49.2126" /> 
<circle cx="4863.39" cy="2060" r="49.2126" /> 
<circle cx="13263.4" cy="4710" r="49.2126" /> 
<circle cx="15563.4" cy="10960" r="49.2126" /> 
<circle cx="1113.39" cy="11210" r="49.2126" /> 
<circle cx="6213.39" cy="9560" r="49.2126" /> 
<circle cx="20163.4" cy="7860" r="49.2126" /> 
<circle cx="21163.4" cy="7860" r="49.2126" /> 
<circle cx="20163.4" cy="6860" r="49.2126" /> 
<circle cx="21163.4" cy="6860" r="49.2126" /> 
<circle cx="20163.4" cy="5860" r="49.2126" /> 
<circle cx="21163.4" cy="5860" r="49.2126" /> 
<circle cx="20163.4" cy="4860" r="49.2126" /> 
<circle cx="21163.4" cy="4860" r="49.2126" /> 
<circle cx="20163.4" cy="3860" r="49.2126" /> 
<circle cx="21163.4" cy="3860" r="49.2126" /> 
<circle cx="5713.39" cy="1860" r="49.2126" /> 
<circle cx="6713.39" cy="1860" r="49.2126" /> 
<circle cx="10313.4" cy="10060" r="49.2126" /> 
<circle cx="10313.4" cy="11060" r="49.2126" /> 
<circle cx="3763.39" cy="10010" r="49.2126" /> 
<circle cx="3763.39" cy="11010" r="49.2126" /> 
<circle cx="24863.4" cy="11560" r="49.2126" /> 
<circle cx="24863.4" cy="1560" r="49.2126" /> 
<circle cx="23863.4" cy="8710" r="49.2126" /> 
<circle cx="23863.4" cy="7610" r="49.2126" /> 
<circle cx="23863.4" cy="6510" r="49.2126" /> 
<circle cx="23863.4" cy="5460" r="49.2126" /> 
<circle cx="23863.4" cy="4360" r="49.2126" /> 
<circle cx="24863.4" cy="4910" r="49.2126" /> 
<circle cx="24863.4" cy="6010" r="49.2126" /> 
<circle cx="24863.4" cy="7060" r="49.2126" /> 
<circle cx="24863.4" cy="8160" r="49.2126" /> 
<circle cx="8213.39" cy="7710" r="59.0551" /> 
<circle cx="10588.4" cy="8485" r="59.0551" /> 
<circle cx="12938.4" cy="7710" r="59.0551" /> 
<circle cx="8213.39" cy="2885" r="59.0551" /> 
<circle cx="12938.4" cy="2885" r="59.0551" /> 
<circle cx="12263.4" cy="12010" r="59.0551" /> 
<circle cx="13263.4" cy="12010" r="59.0551" /> 
<circle cx="14263.4" cy="12010" r="59.0551" /> 
<circle cx="15263.4" cy="12010" r="59.0551" /> 
<circle cx="16263.4" cy="12010" r="59.0551" /> 
<circle cx="17263.4" cy="12010" r="59.0551" /> 
</g> 
</svg>
